<?xml version="1.0" encoding="UTF-8" standalone="no"?>
<!-- Created with Inkscape (http://www.inkscape.org/) -->

<svg
   width="35.236683mm"
   height="31.191477mm"
   viewBox="0 0 35.236683 31.191477"
   version="1.1"
   id="svg1"
   xml:space="preserve"
   xmlns:inkscape="http://www.inkscape.org/namespaces/inkscape"
   xmlns:sodipodi="http://sodipodi.sourceforge.net/DTD/sodipodi-0.dtd"
   xmlns="http://www.w3.org/2000/svg"
   xmlns:svg="http://www.w3.org/2000/svg"><sodipodi:namedview
     id="namedview1"
     pagecolor="#ffffff"
     bordercolor="#999999"
     borderopacity="1"
     inkscape:showpageshadow="2"
     inkscape:pageopacity="0"
     inkscape:pagecheckerboard="0"
     inkscape:deskcolor="#d1d1d1"
     inkscape:document-units="mm" /><defs
     id="defs1"><inkscape:path-effect
       effect="fillet_chamfer"
       id="path-effect8"
       is_visible="true"
       lpeversion="1"
       nodesatellites_param="F,0,0,1,0,1.3160306,0,1 @ F,0,1,1,0,1.3160306,0,1 @ F,0,1,1,0,1.3160306,0,1 @ F,0,1,1,0,1.3160306,0,1 @ F,0,1,1,0,1.3160306,0,1 @ F,0,1,1,0,1.3160306,0,1"
       radius="0"
       unit="px"
       method="auto"
       mode="F"
       chamfer_steps="1"
       flexible="false"
       use_knot_distance="true"
       apply_no_radius="true"
       apply_with_radius="true"
       only_selected="false"
       hide_knots="false" /></defs><g
     inkscape:label="Color"
     inkscape:groupmode="layer"
     id="g7"
     transform="translate(-107.68935,-135.88627)"><path
       style="display:inline;fill:#de1b21;fill-opacity:1;stroke:#000000;stroke-width:1.5;stroke-linecap:round;stroke-linejoin:round;stroke-dasharray:none;stroke-dashoffset:0;stroke-opacity:1;paint-order:normal"
       d="m 100.73403,136.63626 h 16.53119 a 2.4637316,2.4637316 28.109418 0 1 2.04777,1.09384 l 7.49476,11.2035 a 2.4130491,2.4130491 84.826038 0 1 0.20838,2.30133 l -6.01828,13.88532 a 2.0047321,2.0047321 146.71662 0 1 -1.83939,1.20749 l -16.39266,0 a 2.3806317,2.3806317 28.934138 0 1 -2.01598,-1.11445 l -6.865694,-10.9314 a 2.6515368,2.6515368 84.264745 0 1 -0.235604,-2.34584 l 5.305127,-14.0684 a 1.9027605,1.9027605 145.33061 0 1 1.780381,-1.23139 z"
       id="path5"
       sodipodi:nodetypes="ccccccc"
       inkscape:path-effect="#path-effect8"
       inkscape:original-d="m 99.417999,136.63626 h 19.163251 l 8.95824,13.39118 -7.065,16.3003 h -19.02472 l -8.265598,-13.1603 z"
       inkscape:label="Cube"
       transform="translate(14.961186)"
       inkscape:export-filename="path5.svg"
       inkscape:export-xdpi="96"
       inkscape:export-ydpi="96" /><path
       style="display:inline;fill:#ffffff;fill-opacity:1"
       d="m 119.58731,164.59114 c -0.71465,0 -0.34384,-1.507 -0.1072,-2.07047 0.4814,-1.1461 0.71053,-1.40641 0.79866,-1.13639 0.27749,0.85026 0.78761,0.99642 1.59873,0.94821 0.62087,-0.0369 1.29286,-1.38252 1.62005,-2.28409 0.52691,-1.45186 0.57998,-2.34633 1.52449,-2.27568 0.74518,0.0558 0.87009,0.71507 0.62137,1.83189 -0.16608,0.74574 0.38203,1.17075 0.90357,1.21008 0.77591,0.0585 1.51948,-0.59393 1.96943,-2.18674 0.43147,-1.5274 1.21016,-2.2754 1.97885,-2.05697 1.57978,0.44891 1.27284,1.78028 0.68384,3.20848 -0.70467,1.70868 -0.78931,3.00354 0.17523,3.01689 1.45539,0.0201 1.90985,-0.63728 2.58342,-3.04459 0.50986,-1.82217 1.24941,-2.85902 2.26773,-2.80643 1.05136,0.0543 1.32724,0.90549 -0.23497,4.30869 -0.32534,0.70873 -0.32495,0.70948 -1.0337,2.30609 -0.41919,0.9443 -0.89844,1.03104 -1.49659,1.03104 z m -3.4678,-2.4276 c -0.33947,-0.5457 -1.42597,-2.30187 -2.41446,-3.9026 -0.98848,-1.60073 -2.09572,-3.37592 -2.46054,-3.94488 -0.85123,-1.32755 -1.18229,-2.75088 -0.43385,-2.78902 0.29953,-0.17031 0.51174,1.31332 1.91888,-1.07131 1.05472,-1.78738 1.77513,-1.08621 0.82555,1.32292 -1.49082,3.78223 0.64228,3.92847 2.3818,0.1633 1.84516,-3.99385 3.28504,-3.96842 2.08012,0.0367 -0.68762,2.28567 0.91115,2.51806 2.0371,0.29611 0.45106,-0.89013 0.81626,-1.2899 1.17835,-1.2899 0.87357,0 0.64692,1.01064 -1.34489,5.99697 -2.76275,6.9163 -2.723,6.86164 -3.76806,5.18167 z m 12.78141,-16.99947 c -0.47718,-0.73841 -0.66794,-1.80397 0.46301,-2.29722 1.65398,-0.72136 0.69224,-1.97022 -1.77631,-2.14878 -2.20727,-0.15966 -3.16694,0.60557 -1.66326,1.32627 1.66845,0.79967 -0.0455,1.72396 -1.82785,0.9857 -2.53851,-1.05148 -1.68512,-3.82681 1.37923,-4.01366 3.98451,-0.24296 6.93938,1.11995 7.01337,3.03604 0.0838,2.16924 -2.25652,2.02795 -1.93786,2.89517 0.32322,0.87962 -1.08485,1.09152 -1.65033,0.21648 z"
       id="path6"
       sodipodi:nodetypes="csssssssssssssssccccssscsssssscsssssssss"
       inkscape:label="Markings" /><path
       id="path7"
       style="fill:#ffffff;fill-opacity:1;stroke:none;stroke-width:3.39474;stroke-linecap:round;stroke-linejoin:round"
       d="m 132.12252,147.43001 a 0.99279475,0.99279475 0 0 1 -0.9928,0.99279 0.99279475,0.99279475 0 0 1 -0.99279,-0.99279 0.99279475,0.99279475 0 0 1 0.99279,-0.9928 0.99279475,0.99279475 0 0 1 0.9928,0.9928 z"
       inkscape:label="Dot" /></g></svg>
